<svg id="Layer_1" data-name="Layer 1" xmlns="http://www.w3.org/2000/svg" viewBox="0 0 484.27 162.19"><defs><style>.cls-1{fill:#1d1d1b;}.cls-2{fill:#841d5c;}.cls-3{fill:#0e7333;}.cls-4{fill:#a8c216;}.cls-5{fill:#da0e15;}.cls-6{fill:#1665af;}.cls-7{fill:#ec6611;}.cls-8{fill:#ffca00;}.cls-9{fill:#8d4f17;}.cls-10{fill:#8c8f8b;}.cls-11{fill:#464643;}</style></defs><title>SEW-RGB</title><path class="cls-1" d="M212.76,282.37c0,6.77,5.27,9.4,11.25,9.4,3.92,0,9.9-1.14,9.9-6.34,0-5.48-7.62-6.4-15.1-8.4s-15.16-4.91-15.16-14.45c0-10.4,9.82-15.38,19-15.38,10.61,0,20.36,4.63,20.36,16.37H232.2c-.36-6.12-4.7-7.69-10-7.69-3.56,0-7.69,1.5-7.69,5.77,0,3.92,2.42,4.42,15.17,7.69,3.7.93,15.09,3.28,15.09,14.81,0,9.33-7.33,16.31-21.15,16.31-11.25,0-21.79-5.55-21.64-18.09Z" transform="translate(-178.87 -210.35)"/><path class="cls-1" d="M257,283.3c.28,6.41,3.42,9.33,9,9.33,4.06,0,7.34-2.49,8-4.77H283c-2.85,8.68-8.9,12.39-17.23,12.39-11.61,0-18.8-8-18.8-19.37,0-11,7.62-19.44,18.8-19.44,12.53,0,18.58,10.54,17.87,21.86Zm16.45-6.41c-.93-5.13-3.14-7.83-8.05-7.83a8,8,0,0,0-8.4,7.83Z" transform="translate(-178.87 -210.35)"/><path class="cls-1" d="M286.57,273.76c.57-9.47,9-12.32,17.3-12.32,7.34,0,16.17,1.64,16.17,10.47v19.15c0,3.35.35,6.69,1.28,8.19H311.06a15.29,15.29,0,0,1-.71-3.56c-3.2,3.35-7.9,4.56-12.39,4.56-7,0-12.53-3.49-12.53-11,0-8.33,6.26-10.33,12.53-11.18s12-.71,12-4.84c0-4.35-3-5-6.55-5-3.84,0-6.33,1.57-6.69,5.56Zm23.35,7.47c-1.71,1.5-5.26,1.57-8.4,2.14s-6,1.71-6,5.41,2.92,4.7,6.2,4.7c7.9,0,8.18-6.27,8.18-8.47Z" transform="translate(-178.87 -210.35)"/><path class="cls-1" d="M324.3,262.44h9.62v6.83h.14a13,13,0,0,1,11.75-7.83,7.56,7.56,0,0,1,2.2.35v9.4a18.7,18.7,0,0,0-3.63-.35c-7.4,0-10,5.34-10,11.82v16.59H324.3Z" transform="translate(-178.87 -210.35)"/><path class="cls-1" d="M374.2,275.4c-.64-4.14-3.27-6.34-7.47-6.34-6.49,0-8.62,6.55-8.62,12s2.06,11.61,8.4,11.61c4.7,0,7.41-3,8.05-7.48h9.75c-1.28,9.76-8,15.1-17.73,15.1-11.1,0-18.58-7.84-18.58-18.87,0-11.47,6.83-19.94,18.8-19.94,8.68,0,16.66,4.56,17.3,14Z" transform="translate(-178.87 -210.35)"/><path class="cls-1" d="M386.44,248.41h10.12v19.15h.21a12.93,12.93,0,0,1,10.75-6.12c10.75,0,13.46,6.05,13.46,15.16v22.65H410.87V278.46c0-6.06-1.78-9-6.48-9-5.48,0-7.83,3.07-7.83,10.54v19.3H386.44Z" transform="translate(-178.87 -210.35)"/><path class="cls-1" d="M205.14,307.74h38v9.4H216.32V328H241v8.69H216.32v12.46h27.42v9.4h-38.6Z" transform="translate(-178.87 -210.35)"/><path class="cls-1" d="M246.65,321.77h9.61v5.12h.22a13.15,13.15,0,0,1,11.25-6.12c10.75,0,13.46,6.05,13.46,15.17v22.64H271.07V337.79c0-6.05-1.78-9-6.48-9-5.48,0-7.83,3.06-7.83,10.54v19.29H246.65Z" transform="translate(-178.87 -210.35)"/><path class="cls-1" d="M319.71,356.23c0,6.06-2.13,16.31-19.08,16.31-7.26,0-15.74-3.42-16.24-11.82h10c.93,3.77,4,5,7.55,5,5.63,0,8.19-3.84,8.12-9.11v-4.84H310c-2.21,3.84-6.63,5.69-11,5.69-11,0-15.74-8.4-15.74-18.51,0-9.54,5.48-18.23,15.81-18.23,4.84,0,8.54,1.64,11,5.91h.14v-4.91h9.61Zm-9.61-16.52c0-6-2.07-11.32-8.62-11.32-5.69,0-8.19,5-8.19,10.47,0,5.27,2,11,8.19,11C307.25,349.89,310.1,345,310.1,339.71Z" transform="translate(-178.87 -210.35)"/><path class="cls-1" d="M332.68,316.07H322.57v-8.33h10.11Zm-10.11,5.7h10.11v36.81H322.57Z" transform="translate(-178.87 -210.35)"/><path class="cls-1" d="M335.56,321.77h9.62v5.12h.21a13.15,13.15,0,0,1,11.25-6.12c10.75,0,13.46,6.05,13.46,15.17v22.64H360V337.79c0-6.05-1.78-9-6.48-9-5.49,0-7.83,3.06-7.83,10.54v19.29H335.56Z" transform="translate(-178.87 -210.35)"/><path class="cls-1" d="M382.55,342.63C382.84,349,386,352,391.6,352c4.06,0,7.33-2.49,8-4.77h8.9c-2.85,8.69-8.9,12.39-17.23,12.39-11.6,0-18.8-8-18.8-19.37,0-11,7.62-19.44,18.8-19.44,12.54,0,18.59,10.54,17.87,21.86ZM399,336.22c-.92-5.12-3.13-7.83-8-7.83a8,8,0,0,0-8.41,7.83Z" transform="translate(-178.87 -210.35)"/><path class="cls-1" d="M481.75,358.58h-11.1L462,324h-.14l-8.48,34.6H442.09l-13.46-50.84h11.18l8.05,34.61H448l8.83-34.61H467.3l8.69,35h.14l8.33-35h11Z" transform="translate(-178.87 -210.35)"/><path class="cls-1" d="M491.87,333.09c.57-9.47,9-12.32,17.3-12.32,7.34,0,16.16,1.64,16.16,10.47v19.15c0,3.35.36,6.7,1.29,8.19H516.36a15.29,15.29,0,0,1-.71-3.56c-3.2,3.35-7.9,4.56-12.39,4.56-7,0-12.53-3.49-12.53-11,0-8.33,6.26-10.32,12.53-11.18s12-.71,12-4.84c0-4.34-3-5-6.55-5-3.84,0-6.34,1.56-6.69,5.55Zm23.35,7.48c-1.71,1.49-5.27,1.56-8.4,2.13s-6,1.71-6,5.41,2.92,4.71,6.19,4.71c7.91,0,8.19-6.27,8.19-8.48Z" transform="translate(-178.87 -210.35)"/><path class="cls-1" d="M543.41,321.77h7.4v6.76h-7.4v18.23c0,3.42.85,4.27,4.27,4.27a15.71,15.71,0,0,0,3.13-.28v7.9a38.07,38.07,0,0,1-5.91.36c-6.19,0-11.6-1.42-11.6-8.76V328.53h-6.13v-6.76h6.13v-11h10.11Z" transform="translate(-178.87 -210.35)"/><path class="cls-1" d="M577.16,334.73c-.64-4.13-3.28-6.34-7.48-6.34-6.48,0-8.62,6.55-8.62,12S563.13,352,569.47,352c4.7,0,7.4-3,8-7.48h9.76c-1.28,9.76-8,15.1-17.73,15.1-11.11,0-18.59-7.83-18.59-18.87,0-11.46,6.84-19.94,18.8-19.94,8.69,0,16.67,4.56,17.3,14Z" transform="translate(-178.87 -210.35)"/><path class="cls-1" d="M589.4,307.74h10.11v19.15h.22a12.94,12.94,0,0,1,10.75-6.12c10.75,0,13.46,6.05,13.46,15.17v22.64H613.83V337.79c0-6.05-1.79-9-6.48-9-5.49,0-7.84,3.06-7.84,10.54v19.29H589.4Z" transform="translate(-178.87 -210.35)"/><rect class="cls-2" x="387.41" width="9.69" height="19.37"/><rect class="cls-3" x="397.1" width="9.69" height="19.37"/><rect class="cls-4" x="406.78" width="9.69" height="19.37"/><rect class="cls-5" x="416.47" width="9.69" height="19.37"/><rect class="cls-6" x="426.15" width="9.69" height="19.37"/><rect class="cls-7" x="435.84" width="9.68" height="19.37"/><rect class="cls-8" x="445.52" width="9.69" height="19.37"/><rect class="cls-9" x="455.21" width="9.69" height="19.37"/><rect class="cls-10" x="464.9" width="9.69" height="19.37"/><rect class="cls-11" x="474.58" width="9.69" height="19.37"/><polygon class="cls-1" points="0 21.76 0 19.37 484.26 19.37 484.26 21.76 0 21.76 0 21.76"/></svg>